Coordinates
version=1
nRows=15
nColumns=33
inDegrees=yes

Units are S.I. units (second, meters, Newtons, ...)
Angles are in degrees.

endheader
time	ground_thorax_rot_x	ground_thorax_rot_y	ground_thorax_rot_z	ground_thorax_tx	ground_thorax_ty	ground_thorax_tz	clav_prot_r	clav_elev_r	scapula_abduction_r	scapula_elevation_r	scapula_upward_rot_r	scapula_winging_r	shoulder_elv_r	plane_of_elev_r	axial_rot_r	elbow_flexion_r	pro_sup_r	wrist_flex_r	wrist_dev_r	clav_prot_l	clav_elev_l	scapula_abduction_l	scapula_elevation_l	scapula_upward_rot_l	scapula_winging_l	shoulder_elv_l	plane_of_elev_l	axial_rot_l	elbow_flexion_l	pro_sup_l	wrist_flex_l	wrist_dev_l	
1.3000	0.467758	7.261401	11.835103	-0.107592	1.030759	0.029640	2.940512	9.837230	16.949701	5.501889	24.126530	-10.211225	21.292640	-69.324756	55.870559	64.413149	-30.053346	65.617728	-24.999813	15.167369	-7.513192	-23.660388	-18.316067	-43.687483	2.928184	65.591684	-28.611902	3.216598	67.906662	11.886372	4.140703	-23.916948	
1.3100	0.445910	7.190033	11.827211	-0.107562	1.030761	0.029459	2.927124	9.913417	17.206407	5.450145	24.486388	-10.331509	21.941359	-69.016487	55.503783	65.293377	-29.735462	63.301611	-24.999666	15.307317	-7.643202	-23.803075	-18.052350	-43.381504	3.049191	65.972751	-28.212334	3.314588	68.112568	11.272554	5.837497	-23.192595	
1.3200	0.417021	7.110847	11.830662	-0.107555	1.030732	0.029241	2.929742	9.965628	17.494058	5.381782	24.836366	-10.457027	22.605915	-68.675223	55.063339	66.130621	-29.119154	60.339533	-24.999401	15.455483	-7.787400	-23.955396	-17.767212	-43.058051	3.177160	66.345786	-27.779739	3.404018	68.253808	10.664762	7.576102	-22.166728	
1.3300	0.377909	7.025266	11.833479	-0.107564	1.030673	0.028981	2.944899	9.989658	17.810050	5.292219	25.179869	-10.586864	23.251484	-68.281398	54.548205	66.881689	-28.248467	56.838479	-24.998928	15.610916	-7.941517	-24.113403	-17.460447	-42.707706	3.310668	66.702765	-27.306278	3.492620	68.320609	10.085420	9.256602	-20.876852	
1.3400	0.326893	6.936340	11.854547	-0.107603	1.030591	0.028674	2.983654	9.978197	18.164032	5.180079	25.501328	-10.721500	23.846636	-67.819408	54.001293	67.481898	-27.220524	53.097896	-24.998079	15.778318	-8.104405	-24.286795	-17.133676	-42.332720	3.454239	67.028328	-26.794791	3.568406	68.276493	9.508154	10.864541	-19.450279	
1.3500	0.267995	6.846859	11.878318	-0.107657	1.030484	0.028319	3.042994	9.934649	18.555989	5.045555	25.809639	-10.861911	24.354653	-67.268084	53.453879	67.894011	-26.238804	49.324179	-24.996560	15.954283	-8.273595	-24.465753	-16.782108	-41.916991	3.604774	67.310945	-26.235943	3.637468	68.096767	8.950654	12.344653	-17.989665	
1.3600	0.202160	6.753834	11.913385	-0.107734	1.030360	0.027909	3.133752	9.853006	18.998564	4.886719	26.094322	-11.010233	24.775896	-66.615709	52.958599	68.070125	-25.379533	45.734852	-24.993837	16.137419	-8.444855	-24.648524	-16.408781	-41.458754	3.761291	67.534739	-25.627197	3.702180	67.749255	8.406474	13.721612	-16.592605	
1.3700	0.132756	6.656450	11.943369	-0.107810	1.030226	0.027446	3.250493	9.727301	19.486376	4.697098	26.360467	-11.164664	25.102792	-65.852136	52.562520	67.981851	-24.850758	42.583196	-24.988965	16.321085	-8.625321	-24.822735	-16.005587	-40.953591	3.917605	67.702883	-24.971391	3.774770	67.225311	7.907590	14.956114	-15.361702	
1.3800	0.056111	6.548090	11.976651	-0.107886	1.030051	0.026923	3.402890	9.564612	20.031307	4.483668	26.604134	-11.329152	25.336155	-64.966526	52.326042	67.602109	-24.725146	39.980857	-24.980222	16.503407	-8.797132	-24.986983	-15.587374	-40.398664	4.073469	67.798720	-24.269280	3.857762	66.530455	7.452929	16.074230	-14.283458	
1.3900	-0.022085	6.431259	12.001839	-0.107948	1.029828	0.026349	3.586443	9.368847	20.620343	4.250358	26.823413	-11.500177	25.497341	-63.966865	52.263364	66.949547	-25.068734	37.858459	-24.964606	16.681476	-8.969617	-25.137307	-15.146376	-39.795472	4.226179	67.834980	-23.524200	3.952657	65.679600	7.034227	17.130885	-13.300300	
1.4000	-0.101884	6.305344	12.027193	-0.108007	1.029548	0.025726	3.807891	9.144017	21.254624	4.003687	27.007538	-11.677661	25.614074	-62.867061	52.392946	66.024774	-25.784159	36.069042	-24.936505	16.857551	-9.138731	-25.281121	-14.689176	-39.151186	4.378000	67.811410	-22.734872	4.054227	64.678430	6.625048	18.207836	-12.328119	
1.4100	-0.182744	6.176418	12.053558	-0.108060	1.029232	0.025062	4.061598	8.885504	21.920843	3.740591	27.154097	-11.856888	25.670657	-61.685422	52.727601	64.800825	-26.903007	34.625074	-24.886524	17.034279	-9.316984	-25.425400	-14.208407	-38.474983	4.530574	67.745766	-21.910429	4.142238	63.519970	6.248041	19.251476	-11.401006	
1.4200	-0.264258	6.045963	12.088391	-0.108111	1.028865	0.024357	4.351643	8.602644	22.620199	3.469344	27.261276	-12.038168	25.639285	-60.439413	53.312170	63.233255	-28.478776	33.420953	-24.796001	17.214476	-9.495035	-25.576654	-13.712158	-37.766653	4.686869	67.629832	-21.048361	4.205993	62.205176	5.889134	20.296001	-10.477844	
1.4300	-0.347997	5.914362	12.128747	-0.108155	1.028470	0.023604	4.675914	8.282712	23.347254	3.180275	27.326487	-12.216817	25.476346	-59.148102	54.205710	61.215687	-30.585157	32.452686	-24.636618	17.397894	-9.679751	-25.737308	-13.198493	-37.035676	4.846366	67.474304	-20.152714	4.246071	60.734363	5.567817	21.309759	-9.569781	
1.4400	-0.445364	5.776994	12.171318	-0.108193	1.028075	0.022780	5.044777	7.887152	24.114852	2.845123	27.337128	-12.387294	25.082324	-57.850792	55.540455	58.503627	-33.434036	31.710829	-24.343389	17.582402	-9.867700	-25.906145	-12.674359	-36.290094	5.006984	67.285806	-19.230442	4.276092	59.120412	5.324337	22.242598	-8.712154	
